<svg xmlns="http://www.w3.org/2000/svg" viewBox="0 0 64 64" width="64" height="64" aria-hidden="true">
  <circle cx="32" cy="32" r="30" fill="#181717"></circle>
  <path fill="#ffffff" d="M32 14c-10 0-18 8-18 18 0 8 5 14.9 12 17.3.9.2 1.2-.4 1.2-.9v-3.2c-4.9 1.1-5.9-2.1-5.9-2.1-.8-2-1.9-2.6-1.9-2.6-1.6-1.1.1-1.1.1-1.1 1.8.1 2.8 1.9 2.8 1.9 1.6 2.8 4.3 2 5.3 1.5.2-1.2.6-2 1.2-2.4-3.9-.4-8-1.9-8-8.6 0-1.9.7-3.4 1.8-4.7-.2-.4-.8-2.2.2-4.5 0 0 1.5-.5 4.9 1.8 1.4-.4 2.9-.6 4.4-.6s3 .2 4.4.6c3.4-2.3 4.9-1.8 4.9-1.8 1 2.3.4 4.1.2 4.5 1.1 1.3 1.8 2.8 1.8 4.7 0 6.7-4.1 8.2-8 8.6.6.5 1.2 1.6 1.2 3.3v4.8c0 .5.3 1.1 1.2.9 7-2.4 12-9.3 12-17.3 0-10-8-18-18-18z"></path>
</svg>