<svg xmlns="http://www.w3.org/2000/svg" viewBox="0 0 24 24" aria-hidden="true">
  <path fill="#1877F2" d="M24 12a12 12 0 1 0-13.88 11.85v-8.39H7.08V12h3.04V9.36c0-3 1.79-4.66 4.52-4.66 1.31 0 2.68.23 2.68.23v2.95h-1.51c-1.49 0-1.95.93-1.95 1.87V12h3.32l-.53 3.46h-2.79v8.39A12 12 0 0 0 24 12z"></path>
  <path fill="#ffffff" d="M16.65 15.46 17.18 12h-3.32V9.75c0-.94.46-1.87 1.95-1.87h1.51V4.93s-1.37-.23-2.68-.23c-2.73 0-4.52 1.65-4.52 4.66V12H7.08v3.46h3.04v8.39c.61.1 1.24.15 1.88.15s1.27-.05 1.88-.15v-8.39h2.79z"></path>
</svg>